PathFileType	4	(X/Y/Z)	C:/Users/beibeiliu/ov580/test_trc/capture2\sequence.4_training_dense_left.trc
DataRate	CameraRate	NumFrames	NumMarkers	Units	OrigDataRate	OrigDataStartFrame	OrigNumFrames
120	120	12	19	mm	120	222	355
Frame#	Time	ThumbCMC			ThumbMCP			ThumbIP			ThumbTip			IndexMCP			IndexPIP			IndexTip			MiddleMCP			MiddlePIP			MiddleTip			RingMCP			RingPIP			RingTip			PinkyMCP			PinkyPIP			PinkyTip			BackHand1			BackHand2			BackHand3	
		X0	Y0	Z0	X1	Y1	Z1	X2	Y2	Z2	X3	Y3	Z3	X4	Y4	Z4	X5	Y5	Z5	X6	Y6	Z6	X7	Y7	Z7	X8	Y8	Z8	X9	Y9	Z9	X10	Y10	Z10	X11	Y11	Z11	X12	Y12	Z12	X13	Y13	Z13	X14	Y14	Z14	X15	Y15	Z15	X16	Y16	Z16	X17	Y17	Z17	X18	Y18	Z18	
221	1.84167	-94.6061	-0.346969	-7.44042	-86.1749	-11.2134	-38.8055	-80.7492	-8.52389	-67.1021	-86.7649	-1.7109	-90.0172	-90.0068	42.2399	-66.8869	-84.4752	46.6869	-91.7301	-81.571	50.3917	-118.58	-104.674	26.3122	-82.4758	-109.092	-6.25227	-87.0596	-110.239	-6.64221	-48.3499	-124.108	14.8665	-80.4378	-124.88	-13.5147	-70.0954	-124.486	-1.91951	-37.0895	-140.338	11.5774	-74.6304	-137.572	-12.6726	-60.3807	-134.399	4.67714	-31.5339	-137.331	42.2122	-33.6342	-148.15	35.9075	1.0576	-108.831	36.873	-10.7082	
222	1.85	-94.5517	6.7736	-9.76023	-84.6775	-2.26133	-41.5143	-77.881	2.44631	-68.9102	-85.9092	11.4144	-93.0127	-86.495	53.0452	-62.9303	-80.9561	59.1481	-87.75	-79.0089	65.1644	-113.063	-103.83	37.9144	-79.5415	-104.154	4.44848	-87.0626	-108.567	2.57826	-49.587	-120.997	24.4962	-81.2413	-122.246	-4.02475	-72.4985	-123.912	3.87988	-38.9299	-141.352	24.639	-72.6032	-135.17	-3.66891	-59.3872	-132.992	13.6587	-31.2402	-138.551	50.2855	-32.4072	-144.34	39.2871	-0.526375	-113.099	41.4708	-7.42822	
223	1.85833	-91.5315	11.9172	-10.3046	-84.796	1.78557	-38.7563	-80.4125	10.0855	-65.6143	-82.6619	18.77	-91.3443	-85.8352	62.4081	-62.2384	-83.6882	70.2137	-86.2725	-82.1673	78.2071	-112.253	-105.514	45.5795	-80.6879	-101.727	15.7451	-89.2347	-104.229	9.13209	-50.1132	-119.417	35.1131	-79.2734	-119.418	4.53905	-70.9627	-119.539	10.1063	-40.8135	-136.113	30.2172	-75.0055	-130.266	6.145	-61.7768	-130.797	19.973	-31.6838	-133.978	57.7041	-28.7563	-146.539	47.0933	-1.62169	-112.011	46.1338	-7.68628	
224	1.86667	-92.7028	18.0134	-11.7523	-85.172	13.0283	-42.47	-75.2219	14.4855	-68.0779	-81.8379	26.3662	-91.454	-84.9992	71.2465	-60.9744	-82.2967	80.3911	-85.9086	-79.0516	88.7621	-109.612	-103.301	53.9248	-80.9415	-103.187	22.6836	-87.3181	-102.038	17.1947	-50.4245	-121.152	44.2965	-76.4563	-119.616	11.2076	-71.5811	-118.053	16.8948	-39.7827	-138.035	38.1156	-75.9892	-132.393	11.7135	-62.7445	-128.845	26.1167	-30.9635	-138.066	62.4272	-26.9209	-145.728	50.1038	2.0837	-108.37	52.8971	-6.26047	
225	1.875	-89.897	23.2832	-10.7633	-79.1912	16.5585	-41.1879	-78.0308	23.2389	-64.5828	-83.6259	37.3805	-92.5612	-86.4403	81.1251	-60.5956	-78.9049	89.8608	-83.0071	-83.2898	98.5306	-103.544	-100.641	64.4995	-74.5318	-101.453	33.9501	-87.71	-102.219	24.7788	-52.4049	-119.636	49.0282	-79.6739	-112.378	20.7185	-71.9467	-117.638	22.77	-40.1079	-133.316	45.1651	-73.4852	-128.448	19.932	-62.8119	-129.053	30.728	-30.3675	-138.023	67.7787	-24.8417	-146.237	49.5427	2.65739	-110.206	56.6117	-4.39906	
226	1.88333	-88.9524	28.7711	-11.2816	-83.0569	24.1848	-42.342	-73.7992	31.0603	-70.5236	-85.6533	45.3018	-91.9287	-85.8241	86.2546	-55.0511	-80.3054	98.2566	-78.5212	-79.9075	108.689	-98.4914	-99.6716	71.4201	-74.0774	-97.178	40.457	-84.51	-99.8907	32.4909	-49.5803	-114.975	57.4669	-76.4441	-113.752	28.2208	-72.3667	-114.336	30.9646	-37.7609	-134.402	51.1043	-74.8191	-128.159	25.2223	-62.4895	-125.196	34.5196	-33.572	-140.146	72.6824	-26.6821	-144.149	54.859	2.15056	-113.449	60.6387	-1.39632	
227	1.89167	-92.3118	31.3189	-9.87544	-82.2181	28.5803	-40.9425	-77.3279	36.3852	-67.365	-87.1221	50.3802	-88.6284	-84.6762	91.0644	-50.1748	-77.4869	103.673	-70.8103	-76.0505	116.728	-95.5894	-96.6011	77.6713	-70.8929	-93.1966	47.1742	-82.9933	-98.5008	36.4441	-48.2814	-116.631	64.2044	-77.2735	-109.954	34.4412	-72.0159	-114.936	35.1758	-37.3278	-133.205	60.9846	-69.6352	-127.261	32.7932	-66.1887	-128.134	35.2342	-32.1178	-134.471	78.661	-22.1561	-145.682	56.9164	2.39367	-108.249	66.2451	0.655205	
228	1.9	-90.727	33.714	-8.77406	-81.7988	29.6207	-39.3579	-76.9778	38.9575	-66.0864	-82.3923	54.408	-90.1799	-84.2957	97.4067	-49.3318	-77.2647	109.39	-67.5652	-72.0767	124.526	-90.7092	-96.2897	82.7852	-69.4722	-94.3037	54.1829	-82.2302	-100.554	41.0264	-50.6297	-118.68	72.1677	-71.7579	-108.844	41.2667	-72.6243	-112.553	35.9108	-42.2195	-134.54	66.17	-69.6205	-125.259	35.8379	-63.0652	-123.542	43.1752	-32.8153	-137.068	80.345	-20.1818	-144.178	60.4663	4.96181	-109.263	65.8107	3.52418	
229	1.90833	-92.5235	35.6891	-9.3181	-81.5214	30.6936	-39.3615	-76.5214	41.5337	-65.3004	-83.9427	59.8726	-89.0703	-79.7097	98.4184	-42.8829	-74.0085	112.297	-63.6786	-72.184	125.417	-84.3042	-95.0888	87.0271	-63.4163	-91.1208	57.4165	-81.257	-101.081	43.115	-51.603	-115.257	75.841	-72.5353	-112.057	44.6711	-73.2509	-115.885	40.281	-38.4937	-130.843	68.4258	-70.9347	-125.576	42.6094	-67.6518	-126.273	41.7852	-31.8854	-134.945	80.4025	-18.0958	-147.601	61.2806	5.10662	-112.074	69.5825	1.17162	
230	1.91667	-92.1811	35.2897	-8.12954	-82.1054	36.2721	-41.1647	-75.4713	44.7119	-65.241	-82.8158	61.729	-86.3565	-81.2742	98.8419	-40.2192	-74.5374	114.655	-62.9832	-72.7245	129.339	-83.5538	-98.8609	89.917	-64.2294	-90.6239	62.171	-81.72	-98.1367	44.4424	-47.995	-111.013	77.7152	-68.9415	-112.329	48.1638	-75.525	-111.793	39.6974	-42.1211	-132.77	72.6445	-69.1952	-123.055	43.189	-64.3635	-125.837	45.1394	-31.8117	-135.179	84.6552	-18.1282	-142.342	62.6869	4.27555	-112.387	69.4746	4.05161	
231	1.925	-92.9777	38.3006	-8.93142	-77.7398	36.2125	-40.229	-73.6233	47.579	-63.9661	-77.9977	61.4467	-84.9397	-79.119	100.847	-40.8328	-73.2314	114.256	-60.0146	-73.8155	132.098	-84.4524	-92.0858	89.5566	-63.6865	-89.8818	61.5145	-79.1039	-99.0255	44.0608	-48.1226	-111.643	78.349	-69.9158	-112.39	48.7074	-74.0611	-113.877	41.3591	-41.0537	-130.54	74.6519	-65.3325	-123.081	46.0534	-65.8232	-125.767	42.0012	-35.313	-134.797	84.5516	-16.4122	-145.407	63.7326	5.25758	-112.374	69.3844	4.52854	
232	1.93333	-93.0209	39.315	-7.41255	-82.7577	39.6543	-37.9283	-73.1466	48.5783	-61.6384	-78.1195	61.1671	-81.3486	-82.4715	103.176	-41.7387	-73.7626	115.69	-59.7563	-72.0269	129.947	-79.9497	-97.0384	90.7673	-65.8151	-89.9479	63.0192	-80.0373	-99.648	43.9368	-53.1295	-115.467	77.496	-72.6314	-108.703	49.5775	-72.6711	-114.553	41.8845	-39.4737	-128.946	72.3397	-68.5513	-125.003	43.5826	-64.7971	-126.217	44.6443	-31.3449	-137.341	81.6154	-15.556	-148.535	62.5245	4.29124	-115.264	68.4448	7.09223	
